<svg width="1200" height="1400" viewBox="0 0 1200 1400" fill="none" xmlns="http://www.w3.org/2000/svg">
  <defs>
    <linearGradient id="bg" x1="0" y1="0" x2="1" y2="1">
      <stop offset="0%" stop-color="#F3F4F6"/>
      <stop offset="100%" stop-color="#D1D5DB"/>
    </linearGradient>
    <linearGradient id="accent" x1="0" y1="0" x2="0" y2="1">
      <stop offset="0%" stop-color="#FFFFFF" stop-opacity="0.9"/>
      <stop offset="100%" stop-color="#E5E7EB" stop-opacity="0.55"/>
    </linearGradient>
  </defs>
  <rect width="1200" height="1400" rx="72" fill="url(#bg)"/>
  <rect x="85" y="88" width="1030" height="1224" rx="58" fill="url(#accent)"/>
  <circle cx="296" cy="356" r="168" fill="#FFFFFF" opacity="0.82"/>
  <circle cx="790" cy="414" r="210" fill="#C7CDD6" opacity="0.7"/>
  <circle cx="510" cy="800" r="260" fill="#E5E7EB" opacity="0.85"/>
  <rect x="190" y="875" width="820" height="250" rx="42" fill="#CBD5E1" opacity="0.78"/>
  <rect x="250" y="930" width="300" height="28" rx="14" fill="#9CA3AF" opacity="0.6"/>
  <rect x="250" y="980" width="520" height="22" rx="11" fill="#D1D5DB"/>
  <rect x="250" y="1020" width="440" height="22" rx="11" fill="#D1D5DB"/>
  <circle cx="865" cy="990" r="78" fill="#FFFFFF" opacity="0.92"/>
  <path d="M845 990l18 18 32-36" stroke="#6B7280" stroke-width="18" stroke-linecap="round" stroke-linejoin="round"/>
  <rect x="170" y="1140" width="860" height="70" rx="35" fill="#D1D5DB" opacity="0.7"/>
  <rect x="235" y="1235" width="210" height="210" rx="40" fill="#D1D5DB" opacity="0.78"/>
  <rect x="480" y="1235" width="550" height="210" rx="40" fill="#E5E7EB" opacity="0.7"/>
</svg>
