<svg width="1200" height="1400" viewBox="0 0 1200 1400" fill="none" xmlns="http://www.w3.org/2000/svg">
  <defs>
    <linearGradient id="g1" x1="0" y1="0" x2="1" y2="1">
      <stop offset="0%" stop-color="#E5E7EB"/>
      <stop offset="100%" stop-color="#9CA3AF"/>
    </linearGradient>
    <linearGradient id="g2" x1="0" y1="0" x2="0" y2="1">
      <stop offset="0%" stop-color="#FFFFFF" stop-opacity="0.8"/>
      <stop offset="100%" stop-color="#D1D5DB" stop-opacity="0.4"/>
    </linearGradient>
  </defs>
  <rect width="1200" height="1400" rx="72" fill="#F3F4F6"/>
  <rect x="90" y="110" width="1020" height="1180" rx="56" fill="url(#g2)"/>
  <circle cx="330" cy="360" r="175" fill="url(#g1)" opacity="0.55"/>
  <circle cx="760" cy="410" r="230" fill="#D1D5DB" opacity="0.65"/>
  <rect x="215" y="700" width="785" height="280" rx="36" fill="#E5E7EB" opacity="0.85"/>
  <rect x="275" y="780" width="250" height="32" rx="16" fill="#9CA3AF" opacity="0.6"/>
  <rect x="275" y="840" width="420" height="24" rx="12" fill="#CBD5E1"/>
  <rect x="275" y="882" width="360" height="24" rx="12" fill="#CBD5E1"/>
  <circle cx="865" cy="840" r="72" fill="#FFFFFF" opacity="0.9"/>
  <path d="M845 840l16 16 30-34" stroke="#6B7280" stroke-width="18" stroke-linecap="round" stroke-linejoin="round"/>
  <rect x="170" y="1030" width="860" height="50" rx="25" fill="#D1D5DB" opacity="0.75"/>
  <rect x="210" y="1110" width="220" height="220" rx="38" fill="#CBD5E1" opacity="0.8"/>
  <rect x="470" y="1110" width="520" height="220" rx="38" fill="#D1D5DB" opacity="0.65"/>
</svg>
